<mxfile host="Electron" modified="2023-12-01T16:53:01.809Z" agent="Mozilla/5.0 (Windows NT 10.0; Win64; x64) AppleWebKit/537.36 (KHTML, like Gecko) draw.io/22.0.2 Chrome/114.0.5735.289 Electron/25.8.4 Safari/537.36" etag="VReQUTZtfvcJAOGoerYt" version="22.0.2" type="device">
  <diagram id="R2lEEEUBdFMjLlhIrx00" name="Page-1">
    <mxGraphModel dx="1247" dy="727" grid="1" gridSize="10" guides="1" tooltips="1" connect="1" arrows="1" fold="1" page="1" pageScale="1" pageWidth="1100" pageHeight="850" math="0" shadow="0" extFonts="Permanent Marker^https://fonts.googleapis.com/css?family=Permanent+Marker">
      <root>
        <mxCell id="0" />
        <mxCell id="1" parent="0" />
        <mxCell id="ZvkQ7QNa-g7VnBk4vGac-1" value="Utente" style="whiteSpace=wrap;html=1;align=center;" vertex="1" parent="1">
          <mxGeometry x="395" y="380" width="145" height="50" as="geometry" />
        </mxCell>
        <mxCell id="ZvkQ7QNa-g7VnBk4vGac-2" value="" style="endArrow=none;html=1;rounded=0;exitX=1;exitY=0.25;exitDx=0;exitDy=0;entryX=0;entryY=0.25;entryDx=0;entryDy=0;" edge="1" parent="1" source="ZvkQ7QNa-g7VnBk4vGac-1" target="ZvkQ7QNa-g7VnBk4vGac-5">
          <mxGeometry relative="1" as="geometry">
            <mxPoint x="555" y="485" as="sourcePoint" />
            <mxPoint x="715" y="485" as="targetPoint" />
          </mxGeometry>
        </mxCell>
        <mxCell id="ZvkQ7QNa-g7VnBk4vGac-3" value="M" style="resizable=0;html=1;whiteSpace=wrap;align=left;verticalAlign=bottom;" connectable="0" vertex="1" parent="ZvkQ7QNa-g7VnBk4vGac-2">
          <mxGeometry x="-1" relative="1" as="geometry">
            <mxPoint y="15" as="offset" />
          </mxGeometry>
        </mxCell>
        <mxCell id="ZvkQ7QNa-g7VnBk4vGac-4" value="N" style="resizable=0;html=1;whiteSpace=wrap;align=right;verticalAlign=bottom;" connectable="0" vertex="1" parent="ZvkQ7QNa-g7VnBk4vGac-2">
          <mxGeometry x="1" relative="1" as="geometry">
            <mxPoint y="15" as="offset" />
          </mxGeometry>
        </mxCell>
        <mxCell id="ZvkQ7QNa-g7VnBk4vGac-5" value="post" style="whiteSpace=wrap;html=1;align=center;" vertex="1" parent="1">
          <mxGeometry x="745" y="380" width="100" height="50" as="geometry" />
        </mxCell>
        <mxCell id="ZvkQ7QNa-g7VnBk4vGac-6" value="" style="endArrow=none;html=1;rounded=0;entryX=0;entryY=0;entryDx=0;entryDy=0;exitX=0;exitY=1;exitDx=0;exitDy=0;" edge="1" parent="1" source="ZvkQ7QNa-g7VnBk4vGac-1" target="ZvkQ7QNa-g7VnBk4vGac-8">
          <mxGeometry relative="1" as="geometry">
            <mxPoint x="390" y="450" as="sourcePoint" />
            <mxPoint x="415" y="655" as="targetPoint" />
          </mxGeometry>
        </mxCell>
        <mxCell id="ZvkQ7QNa-g7VnBk4vGac-7" value="N" style="resizable=0;html=1;whiteSpace=wrap;align=right;verticalAlign=bottom;" connectable="0" vertex="1" parent="ZvkQ7QNa-g7VnBk4vGac-6">
          <mxGeometry x="1" relative="1" as="geometry" />
        </mxCell>
        <mxCell id="ZvkQ7QNa-g7VnBk4vGac-8" value="gruppo" style="whiteSpace=wrap;html=1;align=center;" vertex="1" parent="1">
          <mxGeometry x="395" y="625" width="145" height="45" as="geometry" />
        </mxCell>
        <mxCell id="ZvkQ7QNa-g7VnBk4vGac-12" value="" style="endArrow=none;html=1;rounded=0;exitX=0.5;exitY=1;exitDx=0;exitDy=0;entryX=0.5;entryY=0;entryDx=0;entryDy=0;" edge="1" parent="1" source="ZvkQ7QNa-g7VnBk4vGac-1" target="ZvkQ7QNa-g7VnBk4vGac-8">
          <mxGeometry relative="1" as="geometry">
            <mxPoint x="555" y="485" as="sourcePoint" />
            <mxPoint x="420" y="620" as="targetPoint" />
          </mxGeometry>
        </mxCell>
        <mxCell id="ZvkQ7QNa-g7VnBk4vGac-13" value="M" style="resizable=0;html=1;whiteSpace=wrap;align=left;verticalAlign=bottom;" connectable="0" vertex="1" parent="ZvkQ7QNa-g7VnBk4vGac-12">
          <mxGeometry x="-1" relative="1" as="geometry">
            <mxPoint y="20" as="offset" />
          </mxGeometry>
        </mxCell>
        <mxCell id="ZvkQ7QNa-g7VnBk4vGac-14" value="N" style="resizable=0;html=1;whiteSpace=wrap;align=right;verticalAlign=bottom;" connectable="0" vertex="1" parent="ZvkQ7QNa-g7VnBk4vGac-12">
          <mxGeometry x="1" relative="1" as="geometry" />
        </mxCell>
        <mxCell id="ZvkQ7QNa-g7VnBk4vGac-15" value="" style="endArrow=none;html=1;rounded=0;exitX=1;exitY=1;exitDx=0;exitDy=0;entryX=1;entryY=0;entryDx=0;entryDy=0;" edge="1" parent="1" source="ZvkQ7QNa-g7VnBk4vGac-1" target="ZvkQ7QNa-g7VnBk4vGac-8">
          <mxGeometry relative="1" as="geometry">
            <mxPoint x="500" y="470" as="sourcePoint" />
            <mxPoint x="500" y="590" as="targetPoint" />
          </mxGeometry>
        </mxCell>
        <mxCell id="ZvkQ7QNa-g7VnBk4vGac-16" value="M" style="resizable=0;html=1;whiteSpace=wrap;align=left;verticalAlign=bottom;" connectable="0" vertex="1" parent="ZvkQ7QNa-g7VnBk4vGac-15">
          <mxGeometry x="-1" relative="1" as="geometry">
            <mxPoint x="5" y="20" as="offset" />
          </mxGeometry>
        </mxCell>
        <mxCell id="ZvkQ7QNa-g7VnBk4vGac-17" value="N" style="resizable=0;html=1;whiteSpace=wrap;align=right;verticalAlign=bottom;" connectable="0" vertex="1" parent="ZvkQ7QNa-g7VnBk4vGac-15">
          <mxGeometry x="1" relative="1" as="geometry" />
        </mxCell>
        <mxCell id="ZvkQ7QNa-g7VnBk4vGac-18" value="" style="endArrow=none;html=1;rounded=0;exitX=1;exitY=0.5;exitDx=0;exitDy=0;entryX=0.5;entryY=1;entryDx=0;entryDy=0;" edge="1" parent="1" source="ZvkQ7QNa-g7VnBk4vGac-8" target="ZvkQ7QNa-g7VnBk4vGac-5">
          <mxGeometry relative="1" as="geometry">
            <mxPoint x="555" y="485" as="sourcePoint" />
            <mxPoint x="715" y="485" as="targetPoint" />
            <Array as="points">
              <mxPoint x="795" y="645" />
            </Array>
          </mxGeometry>
        </mxCell>
        <mxCell id="ZvkQ7QNa-g7VnBk4vGac-19" value="N" style="resizable=0;html=1;whiteSpace=wrap;align=right;verticalAlign=bottom;" connectable="0" vertex="1" parent="ZvkQ7QNa-g7VnBk4vGac-18">
          <mxGeometry x="1" relative="1" as="geometry">
            <mxPoint x="15" y="23" as="offset" />
          </mxGeometry>
        </mxCell>
        <mxCell id="ZvkQ7QNa-g7VnBk4vGac-20" value="" style="endArrow=none;html=1;rounded=0;exitX=1;exitY=0.75;exitDx=0;exitDy=0;entryX=0;entryY=0.75;entryDx=0;entryDy=0;" edge="1" parent="1" source="ZvkQ7QNa-g7VnBk4vGac-1" target="ZvkQ7QNa-g7VnBk4vGac-5">
          <mxGeometry relative="1" as="geometry">
            <mxPoint x="555" y="485" as="sourcePoint" />
            <mxPoint x="715" y="485" as="targetPoint" />
          </mxGeometry>
        </mxCell>
        <mxCell id="ZvkQ7QNa-g7VnBk4vGac-21" value="N" style="resizable=0;html=1;whiteSpace=wrap;align=right;verticalAlign=bottom;" connectable="0" vertex="1" parent="ZvkQ7QNa-g7VnBk4vGac-20">
          <mxGeometry x="1" relative="1" as="geometry">
            <mxPoint x="-5" y="20" as="offset" />
          </mxGeometry>
        </mxCell>
        <mxCell id="ZvkQ7QNa-g7VnBk4vGac-22" value="Richiesta" style="whiteSpace=wrap;html=1;align=center;" vertex="1" parent="1">
          <mxGeometry x="255" y="485" width="100" height="40" as="geometry" />
        </mxCell>
        <mxCell id="ZvkQ7QNa-g7VnBk4vGac-23" value="" style="endArrow=none;html=1;rounded=0;exitX=0;exitY=0.5;exitDx=0;exitDy=0;entryX=0.416;entryY=-0.025;entryDx=0;entryDy=0;entryPerimeter=0;" edge="1" parent="1" source="ZvkQ7QNa-g7VnBk4vGac-1" target="ZvkQ7QNa-g7VnBk4vGac-22">
          <mxGeometry relative="1" as="geometry">
            <mxPoint x="555" y="485" as="sourcePoint" />
            <mxPoint x="715" y="485" as="targetPoint" />
            <Array as="points">
              <mxPoint x="297" y="405" />
            </Array>
          </mxGeometry>
        </mxCell>
        <mxCell id="ZvkQ7QNa-g7VnBk4vGac-24" value="N" style="resizable=0;html=1;whiteSpace=wrap;align=right;verticalAlign=bottom;" connectable="0" vertex="1" parent="ZvkQ7QNa-g7VnBk4vGac-23">
          <mxGeometry x="1" relative="1" as="geometry" />
        </mxCell>
        <mxCell id="ZvkQ7QNa-g7VnBk4vGac-25" value="" style="endArrow=none;html=1;rounded=0;exitX=0;exitY=0.5;exitDx=0;exitDy=0;entryX=0.408;entryY=0.995;entryDx=0;entryDy=0;entryPerimeter=0;" edge="1" parent="1" source="ZvkQ7QNa-g7VnBk4vGac-8" target="ZvkQ7QNa-g7VnBk4vGac-22">
          <mxGeometry relative="1" as="geometry">
            <mxPoint x="555" y="485" as="sourcePoint" />
            <mxPoint x="715" y="485" as="targetPoint" />
            <Array as="points">
              <mxPoint x="295" y="645" />
            </Array>
          </mxGeometry>
        </mxCell>
        <mxCell id="ZvkQ7QNa-g7VnBk4vGac-26" value="N" style="resizable=0;html=1;whiteSpace=wrap;align=right;verticalAlign=bottom;" connectable="0" vertex="1" parent="ZvkQ7QNa-g7VnBk4vGac-25">
          <mxGeometry x="1" relative="1" as="geometry">
            <mxPoint y="20" as="offset" />
          </mxGeometry>
        </mxCell>
        <mxCell id="ZvkQ7QNa-g7VnBk4vGac-27" value="Notofica" style="whiteSpace=wrap;html=1;align=center;" vertex="1" parent="1">
          <mxGeometry x="570" y="125" width="100" height="40" as="geometry" />
        </mxCell>
        <mxCell id="ZvkQ7QNa-g7VnBk4vGac-28" value="" style="endArrow=none;html=1;rounded=0;entryX=1;entryY=0.5;entryDx=0;entryDy=0;" edge="1" parent="1" target="ZvkQ7QNa-g7VnBk4vGac-27">
          <mxGeometry relative="1" as="geometry">
            <mxPoint x="800" y="380" as="sourcePoint" />
            <mxPoint x="715" y="485" as="targetPoint" />
            <Array as="points">
              <mxPoint x="800" y="145" />
            </Array>
          </mxGeometry>
        </mxCell>
        <mxCell id="ZvkQ7QNa-g7VnBk4vGac-29" value="N" style="resizable=0;html=1;whiteSpace=wrap;align=right;verticalAlign=bottom;" connectable="0" vertex="1" parent="ZvkQ7QNa-g7VnBk4vGac-28">
          <mxGeometry x="1" relative="1" as="geometry">
            <mxPoint x="20" y="20" as="offset" />
          </mxGeometry>
        </mxCell>
        <mxCell id="ZvkQ7QNa-g7VnBk4vGac-30" value="" style="endArrow=none;html=1;rounded=0;entryX=0;entryY=0.5;entryDx=0;entryDy=0;exitX=0.792;exitY=0.026;exitDx=0;exitDy=0;exitPerimeter=0;" edge="1" parent="1" source="ZvkQ7QNa-g7VnBk4vGac-1" target="ZvkQ7QNa-g7VnBk4vGac-27">
          <mxGeometry relative="1" as="geometry">
            <mxPoint x="510" y="380" as="sourcePoint" />
            <mxPoint x="560" y="210" as="targetPoint" />
            <Array as="points">
              <mxPoint x="510" y="145" />
            </Array>
          </mxGeometry>
        </mxCell>
        <mxCell id="ZvkQ7QNa-g7VnBk4vGac-31" value="N" style="resizable=0;html=1;whiteSpace=wrap;align=right;verticalAlign=bottom;" connectable="0" vertex="1" parent="ZvkQ7QNa-g7VnBk4vGac-30">
          <mxGeometry x="1" relative="1" as="geometry">
            <mxPoint x="-10" y="20" as="offset" />
          </mxGeometry>
        </mxCell>
        <mxCell id="ZvkQ7QNa-g7VnBk4vGac-32" value="interazioni" style="whiteSpace=wrap;html=1;align=center;" vertex="1" parent="1">
          <mxGeometry x="570" y="250" width="100" height="40" as="geometry" />
        </mxCell>
        <mxCell id="ZvkQ7QNa-g7VnBk4vGac-33" value="" style="endArrow=none;html=1;rounded=0;dashed=1;dashPattern=1 2;exitX=0.694;exitY=0.999;exitDx=0;exitDy=0;exitPerimeter=0;" edge="1" parent="1" source="ZvkQ7QNa-g7VnBk4vGac-32">
          <mxGeometry relative="1" as="geometry">
            <mxPoint x="555" y="485" as="sourcePoint" />
            <mxPoint x="640" y="390" as="targetPoint" />
            <Array as="points" />
          </mxGeometry>
        </mxCell>
        <mxCell id="ZvkQ7QNa-g7VnBk4vGac-34" value="1" style="resizable=0;html=1;whiteSpace=wrap;align=right;verticalAlign=bottom;" connectable="0" vertex="1" parent="ZvkQ7QNa-g7VnBk4vGac-33">
          <mxGeometry x="1" relative="1" as="geometry">
            <mxPoint x="-5" y="-7" as="offset" />
          </mxGeometry>
        </mxCell>
        <mxCell id="ZvkQ7QNa-g7VnBk4vGac-35" value="" style="endArrow=none;html=1;rounded=0;exitX=0.25;exitY=1;exitDx=0;exitDy=0;" edge="1" parent="1">
          <mxGeometry relative="1" as="geometry">
            <mxPoint x="619.62" y="162.5" as="sourcePoint" />
            <mxPoint x="619.62" y="257.5" as="targetPoint" />
          </mxGeometry>
        </mxCell>
        <mxCell id="ZvkQ7QNa-g7VnBk4vGac-36" value="1" style="resizable=0;html=1;whiteSpace=wrap;align=right;verticalAlign=bottom;" connectable="0" vertex="1" parent="ZvkQ7QNa-g7VnBk4vGac-35">
          <mxGeometry x="1" relative="1" as="geometry">
            <mxPoint x="10" y="-7" as="offset" />
          </mxGeometry>
        </mxCell>
        <mxCell id="ZvkQ7QNa-g7VnBk4vGac-37" value="data" style="ellipse;whiteSpace=wrap;html=1;align=center;" vertex="1" parent="1">
          <mxGeometry x="500" y="20" width="100" height="40" as="geometry" />
        </mxCell>
        <mxCell id="ZvkQ7QNa-g7VnBk4vGac-38" value="ora" style="ellipse;whiteSpace=wrap;html=1;align=center;" vertex="1" parent="1">
          <mxGeometry x="645" y="20" width="100" height="40" as="geometry" />
        </mxCell>
        <mxCell id="ZvkQ7QNa-g7VnBk4vGac-39" value="" style="endArrow=none;html=1;rounded=0;exitX=0.5;exitY=1;exitDx=0;exitDy=0;entryX=0.5;entryY=0;entryDx=0;entryDy=0;" edge="1" parent="1" source="ZvkQ7QNa-g7VnBk4vGac-37" target="ZvkQ7QNa-g7VnBk4vGac-27">
          <mxGeometry relative="1" as="geometry">
            <mxPoint x="535" y="130" as="sourcePoint" />
            <mxPoint x="695" y="130" as="targetPoint" />
          </mxGeometry>
        </mxCell>
        <mxCell id="ZvkQ7QNa-g7VnBk4vGac-40" value="" style="endArrow=none;html=1;rounded=0;exitX=0.5;exitY=1;exitDx=0;exitDy=0;entryX=0.5;entryY=0;entryDx=0;entryDy=0;" edge="1" parent="1" source="ZvkQ7QNa-g7VnBk4vGac-38" target="ZvkQ7QNa-g7VnBk4vGac-27">
          <mxGeometry relative="1" as="geometry">
            <mxPoint x="535" y="130" as="sourcePoint" />
            <mxPoint x="695" y="130" as="targetPoint" />
          </mxGeometry>
        </mxCell>
        <mxCell id="ZvkQ7QNa-g7VnBk4vGac-41" value="username" style="ellipse;whiteSpace=wrap;html=1;align=center;" vertex="1" parent="1">
          <mxGeometry x="295" y="240" width="100" height="40" as="geometry" />
        </mxCell>
        <mxCell id="ZvkQ7QNa-g7VnBk4vGac-42" value="asito" style="ellipse;whiteSpace=wrap;html=1;align=center;" vertex="1" parent="1">
          <mxGeometry x="120" y="560" width="100" height="40" as="geometry" />
        </mxCell>
        <mxCell id="ZvkQ7QNa-g7VnBk4vGac-43" value="testo" style="ellipse;whiteSpace=wrap;html=1;align=center;" vertex="1" parent="1">
          <mxGeometry x="120" y="500" width="100" height="40" as="geometry" />
        </mxCell>
        <mxCell id="ZvkQ7QNa-g7VnBk4vGac-44" value="ora_richiesta" style="ellipse;whiteSpace=wrap;html=1;align=center;" vertex="1" parent="1">
          <mxGeometry x="120" y="440" width="100" height="40" as="geometry" />
        </mxCell>
        <mxCell id="ZvkQ7QNa-g7VnBk4vGac-45" value="data_richiesta&amp;nbsp;" style="ellipse;whiteSpace=wrap;html=1;align=center;" vertex="1" parent="1">
          <mxGeometry x="120" y="377.5" width="100" height="40" as="geometry" />
        </mxCell>
        <mxCell id="ZvkQ7QNa-g7VnBk4vGac-46" value="tag" style="ellipse;whiteSpace=wrap;html=1;align=center;" vertex="1" parent="1">
          <mxGeometry x="270" y="700" width="100" height="40" as="geometry" />
        </mxCell>
        <mxCell id="ZvkQ7QNa-g7VnBk4vGac-47" value="nome" style="ellipse;whiteSpace=wrap;html=1;align=center;" vertex="1" parent="1">
          <mxGeometry x="395" y="700" width="100" height="40" as="geometry" />
        </mxCell>
        <mxCell id="ZvkQ7QNa-g7VnBk4vGac-48" value="data_creazione" style="ellipse;whiteSpace=wrap;html=1;align=center;" vertex="1" parent="1">
          <mxGeometry x="520" y="700" width="100" height="40" as="geometry" />
        </mxCell>
        <mxCell id="ZvkQ7QNa-g7VnBk4vGac-49" value="ora_pubblicazione" style="ellipse;whiteSpace=wrap;html=1;align=center;" vertex="1" parent="1">
          <mxGeometry x="910" y="522.5" width="115" height="50" as="geometry" />
        </mxCell>
        <mxCell id="ZvkQ7QNa-g7VnBk4vGac-50" value="data_pubblicazione" style="ellipse;whiteSpace=wrap;html=1;align=center;" vertex="1" parent="1">
          <mxGeometry x="910" y="450" width="110" height="52.5" as="geometry" />
        </mxCell>
        <mxCell id="ZvkQ7QNa-g7VnBk4vGac-51" value="testo" style="ellipse;whiteSpace=wrap;html=1;align=center;" vertex="1" parent="1">
          <mxGeometry x="915" y="385" width="100" height="40" as="geometry" />
        </mxCell>
        <mxCell id="ZvkQ7QNa-g7VnBk4vGac-52" value="foto" style="ellipse;whiteSpace=wrap;html=1;align=center;" vertex="1" parent="1">
          <mxGeometry x="917.5" y="320" width="100" height="40" as="geometry" />
        </mxCell>
        <mxCell id="ZvkQ7QNa-g7VnBk4vGac-53" value="" style="endArrow=none;html=1;rounded=0;exitX=0.5;exitY=1;exitDx=0;exitDy=0;entryX=0.5;entryY=0;entryDx=0;entryDy=0;" edge="1" parent="1" source="ZvkQ7QNa-g7VnBk4vGac-8" target="ZvkQ7QNa-g7VnBk4vGac-47">
          <mxGeometry relative="1" as="geometry">
            <mxPoint x="620" y="670" as="sourcePoint" />
            <mxPoint x="780" y="670" as="targetPoint" />
          </mxGeometry>
        </mxCell>
        <mxCell id="ZvkQ7QNa-g7VnBk4vGac-54" value="" style="endArrow=none;html=1;rounded=0;exitX=0.75;exitY=1;exitDx=0;exitDy=0;entryX=0.5;entryY=0;entryDx=0;entryDy=0;" edge="1" parent="1" source="ZvkQ7QNa-g7VnBk4vGac-8" target="ZvkQ7QNa-g7VnBk4vGac-48">
          <mxGeometry relative="1" as="geometry">
            <mxPoint x="510" y="680" as="sourcePoint" />
            <mxPoint x="670" y="680" as="targetPoint" />
          </mxGeometry>
        </mxCell>
        <mxCell id="ZvkQ7QNa-g7VnBk4vGac-55" value="" style="endArrow=none;html=1;rounded=0;exitX=0.75;exitY=1;exitDx=0;exitDy=0;entryX=0;entryY=0;entryDx=0;entryDy=0;" edge="1" parent="1" source="ZvkQ7QNa-g7VnBk4vGac-5" target="ZvkQ7QNa-g7VnBk4vGac-49">
          <mxGeometry relative="1" as="geometry">
            <mxPoint x="720" y="514.62" as="sourcePoint" />
            <mxPoint x="880" y="514.62" as="targetPoint" />
          </mxGeometry>
        </mxCell>
        <mxCell id="ZvkQ7QNa-g7VnBk4vGac-56" value="" style="endArrow=none;html=1;rounded=0;entryX=0;entryY=0.5;entryDx=0;entryDy=0;exitX=1;exitY=1;exitDx=0;exitDy=0;" edge="1" parent="1" source="ZvkQ7QNa-g7VnBk4vGac-5" target="ZvkQ7QNa-g7VnBk4vGac-50">
          <mxGeometry relative="1" as="geometry">
            <mxPoint x="530" y="420" as="sourcePoint" />
            <mxPoint x="690" y="420" as="targetPoint" />
            <Array as="points" />
          </mxGeometry>
        </mxCell>
        <mxCell id="ZvkQ7QNa-g7VnBk4vGac-57" value="" style="endArrow=none;html=1;rounded=0;entryX=0.989;entryY=0.377;entryDx=0;entryDy=0;entryPerimeter=0;exitX=0.197;exitY=0.901;exitDx=0;exitDy=0;exitPerimeter=0;" edge="1" parent="1" source="ZvkQ7QNa-g7VnBk4vGac-51" target="ZvkQ7QNa-g7VnBk4vGac-5">
          <mxGeometry relative="1" as="geometry">
            <mxPoint x="530" y="420" as="sourcePoint" />
            <mxPoint x="690" y="420" as="targetPoint" />
          </mxGeometry>
        </mxCell>
        <mxCell id="ZvkQ7QNa-g7VnBk4vGac-58" value="" style="endArrow=none;html=1;rounded=0;exitX=0.75;exitY=0;exitDx=0;exitDy=0;" edge="1" parent="1" source="ZvkQ7QNa-g7VnBk4vGac-5" target="ZvkQ7QNa-g7VnBk4vGac-52">
          <mxGeometry relative="1" as="geometry">
            <mxPoint x="530" y="420" as="sourcePoint" />
            <mxPoint x="690" y="420" as="targetPoint" />
          </mxGeometry>
        </mxCell>
        <mxCell id="ZvkQ7QNa-g7VnBk4vGac-60" value="" style="endArrow=none;html=1;rounded=0;exitX=1;exitY=0.5;exitDx=0;exitDy=0;entryX=0.25;entryY=1;entryDx=0;entryDy=0;" edge="1" parent="1" source="ZvkQ7QNa-g7VnBk4vGac-42" target="ZvkQ7QNa-g7VnBk4vGac-22">
          <mxGeometry relative="1" as="geometry">
            <mxPoint x="530" y="519.62" as="sourcePoint" />
            <mxPoint x="690" y="519.62" as="targetPoint" />
          </mxGeometry>
        </mxCell>
        <mxCell id="ZvkQ7QNa-g7VnBk4vGac-61" value="" style="endArrow=none;html=1;rounded=0;exitX=1;exitY=0.5;exitDx=0;exitDy=0;entryX=0;entryY=0.75;entryDx=0;entryDy=0;" edge="1" parent="1" source="ZvkQ7QNa-g7VnBk4vGac-43" target="ZvkQ7QNa-g7VnBk4vGac-22">
          <mxGeometry relative="1" as="geometry">
            <mxPoint x="530" y="500" as="sourcePoint" />
            <mxPoint x="690" y="500" as="targetPoint" />
          </mxGeometry>
        </mxCell>
        <mxCell id="ZvkQ7QNa-g7VnBk4vGac-62" value="" style="endArrow=none;html=1;rounded=0;exitX=1;exitY=0.5;exitDx=0;exitDy=0;entryX=0;entryY=0;entryDx=0;entryDy=0;" edge="1" parent="1" source="ZvkQ7QNa-g7VnBk4vGac-44" target="ZvkQ7QNa-g7VnBk4vGac-22">
          <mxGeometry relative="1" as="geometry">
            <mxPoint x="530" y="525" as="sourcePoint" />
            <mxPoint x="690" y="525" as="targetPoint" />
          </mxGeometry>
        </mxCell>
        <mxCell id="ZvkQ7QNa-g7VnBk4vGac-63" value="" style="endArrow=none;html=1;rounded=0;exitX=1;exitY=1;exitDx=0;exitDy=0;" edge="1" parent="1" source="ZvkQ7QNa-g7VnBk4vGac-45" target="ZvkQ7QNa-g7VnBk4vGac-22">
          <mxGeometry relative="1" as="geometry">
            <mxPoint x="530" y="504.62" as="sourcePoint" />
            <mxPoint x="690" y="504.62" as="targetPoint" />
          </mxGeometry>
        </mxCell>
        <mxCell id="ZvkQ7QNa-g7VnBk4vGac-64" value="" style="endArrow=none;html=1;rounded=0;entryX=0.25;entryY=1;entryDx=0;entryDy=0;exitX=0.5;exitY=0;exitDx=0;exitDy=0;" edge="1" parent="1" source="ZvkQ7QNa-g7VnBk4vGac-46" target="ZvkQ7QNa-g7VnBk4vGac-8">
          <mxGeometry relative="1" as="geometry">
            <mxPoint x="210" y="680" as="sourcePoint" />
            <mxPoint x="370" y="680" as="targetPoint" />
          </mxGeometry>
        </mxCell>
        <mxCell id="ZvkQ7QNa-g7VnBk4vGac-68" value="password&amp;nbsp;" style="ellipse;whiteSpace=wrap;html=1;align=center;" vertex="1" parent="1">
          <mxGeometry x="155" y="312.5" width="100" height="40" as="geometry" />
        </mxCell>
        <mxCell id="ZvkQ7QNa-g7VnBk4vGac-69" value="email" style="ellipse;whiteSpace=wrap;html=1;align=center;" vertex="1" parent="1">
          <mxGeometry x="205" y="267.5" width="100" height="40" as="geometry" />
        </mxCell>
        <mxCell id="ZvkQ7QNa-g7VnBk4vGac-70" value="" style="endArrow=none;html=1;rounded=0;exitX=1;exitY=1;exitDx=0;exitDy=0;entryX=-0.026;entryY=0.127;entryDx=0;entryDy=0;entryPerimeter=0;" edge="1" parent="1" source="ZvkQ7QNa-g7VnBk4vGac-68" target="ZvkQ7QNa-g7VnBk4vGac-1">
          <mxGeometry relative="1" as="geometry">
            <mxPoint x="530" y="420" as="sourcePoint" />
            <mxPoint x="690" y="420" as="targetPoint" />
          </mxGeometry>
        </mxCell>
        <mxCell id="ZvkQ7QNa-g7VnBk4vGac-71" value="" style="endArrow=none;html=1;rounded=0;exitX=0.77;exitY=0.896;exitDx=0;exitDy=0;exitPerimeter=0;entryX=0.25;entryY=0;entryDx=0;entryDy=0;" edge="1" parent="1" source="ZvkQ7QNa-g7VnBk4vGac-69" target="ZvkQ7QNa-g7VnBk4vGac-1">
          <mxGeometry relative="1" as="geometry">
            <mxPoint x="530" y="420" as="sourcePoint" />
            <mxPoint x="690" y="420" as="targetPoint" />
          </mxGeometry>
        </mxCell>
        <mxCell id="ZvkQ7QNa-g7VnBk4vGac-72" value="" style="endArrow=none;html=1;rounded=0;exitX=0.5;exitY=1;exitDx=0;exitDy=0;entryX=0.5;entryY=0;entryDx=0;entryDy=0;" edge="1" parent="1" source="ZvkQ7QNa-g7VnBk4vGac-41" target="ZvkQ7QNa-g7VnBk4vGac-1">
          <mxGeometry relative="1" as="geometry">
            <mxPoint x="530" y="420" as="sourcePoint" />
            <mxPoint x="690" y="420" as="targetPoint" />
          </mxGeometry>
        </mxCell>
        <mxCell id="ZvkQ7QNa-g7VnBk4vGac-73" value="Entity" style="whiteSpace=wrap;html=1;align=center;" vertex="1" parent="1">
          <mxGeometry x="684.71" y="190" width="100" height="40" as="geometry" />
        </mxCell>
        <mxCell id="ZvkQ7QNa-g7VnBk4vGac-74" value="Entity" style="whiteSpace=wrap;html=1;align=center;" vertex="1" parent="1">
          <mxGeometry x="690" y="312.5" width="100" height="40" as="geometry" />
        </mxCell>
        <mxCell id="ZvkQ7QNa-g7VnBk4vGac-76" value="" style="shape=singleArrow;direction=north;whiteSpace=wrap;html=1;arrowWidth=0.016009078307149593;arrowSize=0.3071754616997067;rotation=-120;" vertex="1" parent="1">
          <mxGeometry x="691.91" y="209.38" width="20" height="70" as="geometry" />
        </mxCell>
        <mxCell id="ZvkQ7QNa-g7VnBk4vGac-78" value="" style="shape=singleArrow;direction=north;whiteSpace=wrap;html=1;arrowWidth=0.016009078307149593;arrowSize=0.3071754616997067;rotation=-70;" vertex="1" parent="1">
          <mxGeometry x="695.66" y="262.33" width="20" height="76.7" as="geometry" />
        </mxCell>
        <mxCell id="ZvkQ7QNa-g7VnBk4vGac-79" value="&lt;font style=&quot;font-size: 10px;&quot;&gt;riceve&lt;/font&gt;" style="text;html=1;align=center;verticalAlign=middle;resizable=0;points=[];autosize=1;strokeColor=none;fillColor=none;" vertex="1" parent="1">
          <mxGeometry x="525" y="120" width="50" height="30" as="geometry" />
        </mxCell>
        <mxCell id="ZvkQ7QNa-g7VnBk4vGac-80" value="&lt;font style=&quot;font-size: 10px;&quot;&gt;è_ricevuta_da&lt;/font&gt;" style="text;html=1;align=center;verticalAlign=middle;resizable=0;points=[];autosize=1;strokeColor=none;fillColor=none;" vertex="1" parent="1">
          <mxGeometry x="430" y="330" width="90" height="30" as="geometry" />
        </mxCell>
        <mxCell id="ZvkQ7QNa-g7VnBk4vGac-82" value="&lt;font style=&quot;font-size: 10px;&quot;&gt;genera&lt;/font&gt;" style="text;html=1;align=center;verticalAlign=middle;resizable=0;points=[];autosize=1;strokeColor=none;fillColor=none;" vertex="1" parent="1">
          <mxGeometry x="665" y="118" width="50" height="30" as="geometry" />
        </mxCell>
        <mxCell id="ZvkQ7QNa-g7VnBk4vGac-83" value="&lt;font style=&quot;font-size: 10px;&quot;&gt;è_generata_da&lt;/font&gt;" style="text;html=1;align=center;verticalAlign=middle;resizable=0;points=[];autosize=1;strokeColor=none;fillColor=none;" vertex="1" parent="1">
          <mxGeometry x="790" y="340" width="90" height="30" as="geometry" />
        </mxCell>
        <mxCell id="ZvkQ7QNa-g7VnBk4vGac-84" value="&lt;font style=&quot;font-size: 10px;&quot;&gt;genera&lt;/font&gt;" style="text;html=1;align=center;verticalAlign=middle;resizable=0;points=[];autosize=1;strokeColor=none;fillColor=none;" vertex="1" parent="1">
          <mxGeometry x="565" y="158" width="50" height="30" as="geometry" />
        </mxCell>
        <mxCell id="ZvkQ7QNa-g7VnBk4vGac-85" value="1" style="text;html=1;align=center;verticalAlign=middle;resizable=0;points=[];autosize=1;strokeColor=none;fillColor=none;" vertex="1" parent="1">
          <mxGeometry x="615" y="158" width="30" height="30" as="geometry" />
        </mxCell>
        <mxCell id="ZvkQ7QNa-g7VnBk4vGac-86" value="&lt;font style=&quot;font-size: 10px;&quot;&gt;è_generata_da&lt;/font&gt;" style="text;html=1;align=center;verticalAlign=middle;resizable=0;points=[];autosize=1;strokeColor=none;fillColor=none;" vertex="1" parent="1">
          <mxGeometry x="540" y="220" width="90" height="30" as="geometry" />
        </mxCell>
        <mxCell id="ZvkQ7QNa-g7VnBk4vGac-87" value="&lt;font style=&quot;font-size: 10px;&quot;&gt;è_interagito_da&lt;/font&gt;" style="text;html=1;align=center;verticalAlign=middle;resizable=0;points=[];autosize=1;strokeColor=none;fillColor=none;" vertex="1" parent="1">
          <mxGeometry x="530" y="370" width="90" height="30" as="geometry" />
        </mxCell>
        <mxCell id="ZvkQ7QNa-g7VnBk4vGac-88" value="&lt;font style=&quot;font-size: 10px;&quot;&gt;interagisce_con&lt;/font&gt;" style="text;html=1;align=center;verticalAlign=middle;resizable=0;points=[];autosize=1;strokeColor=none;fillColor=none;" vertex="1" parent="1">
          <mxGeometry x="655" y="370" width="90" height="30" as="geometry" />
        </mxCell>
        <mxCell id="ZvkQ7QNa-g7VnBk4vGac-89" value="&lt;font style=&quot;font-size: 10px;&quot;&gt;é_inviata_da&lt;/font&gt;" style="text;html=1;align=center;verticalAlign=middle;resizable=0;points=[];autosize=1;strokeColor=none;fillColor=none;" vertex="1" parent="1">
          <mxGeometry x="315" y="407.5" width="80" height="30" as="geometry" />
        </mxCell>
        <mxCell id="ZvkQ7QNa-g7VnBk4vGac-97" value="&lt;font style=&quot;font-size: 10px;&quot;&gt;invia&lt;/font&gt;" style="text;html=1;align=center;verticalAlign=middle;resizable=0;points=[];autosize=1;strokeColor=none;fillColor=none;" vertex="1" parent="1">
          <mxGeometry x="300" y="458" width="40" height="30" as="geometry" />
        </mxCell>
        <mxCell id="ZvkQ7QNa-g7VnBk4vGac-98" value="&lt;font style=&quot;font-size: 10px;&quot;&gt;riceve&lt;/font&gt;" style="text;html=1;align=center;verticalAlign=middle;resizable=0;points=[];autosize=1;strokeColor=none;fillColor=none;" vertex="1" parent="1">
          <mxGeometry x="295" y="522.5" width="50" height="30" as="geometry" />
        </mxCell>
        <mxCell id="ZvkQ7QNa-g7VnBk4vGac-99" value="&lt;font style=&quot;font-size: 10px;&quot;&gt;é_ricevuta_da&lt;/font&gt;" style="text;html=1;align=center;verticalAlign=middle;resizable=0;points=[];autosize=1;strokeColor=none;fillColor=none;" vertex="1" parent="1">
          <mxGeometry x="320" y="620" width="90" height="30" as="geometry" />
        </mxCell>
        <mxCell id="ZvkQ7QNa-g7VnBk4vGac-100" value="&lt;font style=&quot;font-size: 10px;&quot;&gt;appartiene_a&lt;/font&gt;" style="text;html=1;align=center;verticalAlign=middle;resizable=0;points=[];autosize=1;strokeColor=none;fillColor=none;" vertex="1" parent="1">
          <mxGeometry x="530" y="620" width="80" height="30" as="geometry" />
        </mxCell>
        <mxCell id="ZvkQ7QNa-g7VnBk4vGac-101" value="&lt;font style=&quot;font-size: 10px;&quot;&gt;contiene&lt;/font&gt;" style="text;html=1;align=center;verticalAlign=middle;resizable=0;points=[];autosize=1;strokeColor=none;fillColor=none;" vertex="1" parent="1">
          <mxGeometry x="745" y="420" width="60" height="30" as="geometry" />
        </mxCell>
        <mxCell id="ZvkQ7QNa-g7VnBk4vGac-102" value="1" style="text;html=1;align=center;verticalAlign=middle;resizable=0;points=[];autosize=1;strokeColor=none;fillColor=none;" vertex="1" parent="1">
          <mxGeometry x="365" y="638" width="30" height="30" as="geometry" />
        </mxCell>
        <mxCell id="ZvkQ7QNa-g7VnBk4vGac-103" value="1" style="text;html=1;align=center;verticalAlign=middle;resizable=0;points=[];autosize=1;strokeColor=none;fillColor=none;" vertex="1" parent="1">
          <mxGeometry x="535" y="640" width="30" height="30" as="geometry" />
        </mxCell>
        <mxCell id="ZvkQ7QNa-g7VnBk4vGac-104" value="1" style="text;html=1;align=center;verticalAlign=middle;resizable=0;points=[];autosize=1;strokeColor=none;fillColor=none;" vertex="1" parent="1">
          <mxGeometry x="485" y="408" width="30" height="30" as="geometry" />
        </mxCell>
        <mxCell id="ZvkQ7QNa-g7VnBk4vGac-105" value="&lt;font style=&quot;font-size: 10px;&quot;&gt;è_pubblicato_da&lt;/font&gt;" style="text;html=1;align=center;verticalAlign=middle;resizable=0;points=[];autosize=1;strokeColor=none;fillColor=none;" vertex="1" parent="1">
          <mxGeometry x="530" y="410" width="100" height="30" as="geometry" />
        </mxCell>
        <mxCell id="ZvkQ7QNa-g7VnBk4vGac-108" value="&lt;font style=&quot;font-size: 10px;&quot;&gt;pubblica&lt;/font&gt;" style="text;html=1;align=center;verticalAlign=middle;resizable=0;points=[];autosize=1;strokeColor=none;fillColor=none;" vertex="1" parent="1">
          <mxGeometry x="680" y="407.5" width="60" height="30" as="geometry" />
        </mxCell>
        <mxCell id="ZvkQ7QNa-g7VnBk4vGac-109" value="&lt;font style=&quot;font-size: 10px;&quot;&gt;sono_iscritti&lt;/font&gt;" style="text;html=1;align=center;verticalAlign=middle;resizable=0;points=[];autosize=1;strokeColor=none;fillColor=none;" vertex="1" parent="1">
          <mxGeometry x="530" y="455" width="80" height="30" as="geometry" />
        </mxCell>
        <mxCell id="ZvkQ7QNa-g7VnBk4vGac-110" value="&lt;font style=&quot;font-size: 10px;&quot;&gt;é_iscritto_a&lt;/font&gt;" style="text;html=1;align=center;verticalAlign=middle;resizable=0;points=[];autosize=1;strokeColor=none;fillColor=none;" vertex="1" parent="1">
          <mxGeometry x="535" y="580" width="70" height="30" as="geometry" />
        </mxCell>
        <mxCell id="ZvkQ7QNa-g7VnBk4vGac-111" value="&lt;font style=&quot;font-size: 9px;&quot;&gt;é_amministato_da&lt;/font&gt;" style="text;html=1;align=center;verticalAlign=middle;resizable=0;points=[];autosize=1;strokeColor=none;fillColor=none;" vertex="1" parent="1">
          <mxGeometry x="425" y="440" width="100" height="30" as="geometry" />
        </mxCell>
        <mxCell id="ZvkQ7QNa-g7VnBk4vGac-112" value="&lt;font style=&quot;font-size: 10px;&quot;&gt;amministra&lt;/font&gt;" style="text;html=1;align=center;verticalAlign=middle;resizable=0;points=[];autosize=1;strokeColor=none;fillColor=none;" vertex="1" parent="1">
          <mxGeometry x="460" y="580" width="70" height="30" as="geometry" />
        </mxCell>
        <mxCell id="ZvkQ7QNa-g7VnBk4vGac-113" value="1" style="text;html=1;align=center;verticalAlign=middle;resizable=0;points=[];autosize=1;strokeColor=none;fillColor=none;" vertex="1" parent="1">
          <mxGeometry x="385" y="430" width="30" height="30" as="geometry" />
        </mxCell>
        <mxCell id="ZvkQ7QNa-g7VnBk4vGac-114" value="&lt;font style=&quot;font-size: 10px;&quot;&gt;é_creato_da&lt;/font&gt;" style="text;html=1;align=center;verticalAlign=middle;resizable=0;points=[];autosize=1;strokeColor=none;fillColor=none;" vertex="1" parent="1">
          <mxGeometry x="385" y="458" width="80" height="30" as="geometry" />
        </mxCell>
        <mxCell id="ZvkQ7QNa-g7VnBk4vGac-115" value="&lt;font style=&quot;font-size: 10px;&quot;&gt;crea&lt;/font&gt;" style="text;html=1;align=center;verticalAlign=middle;resizable=0;points=[];autosize=1;strokeColor=none;fillColor=none;" vertex="1" parent="1">
          <mxGeometry x="390" y="588" width="40" height="30" as="geometry" />
        </mxCell>
      </root>
    </mxGraphModel>
  </diagram>
</mxfile>
